<?xml version="1.0" encoding="UTF-8" standalone="no"?>
<!-- Created with Inkscape (http://www.inkscape.org/) -->

<svg
   xmlns:dc="http://purl.org/dc/elements/1.1/"
   xmlns:cc="http://creativecommons.org/ns#"
   xmlns:rdf="http://www.w3.org/1999/02/22-rdf-syntax-ns#"
   xmlns:svg="http://www.w3.org/2000/svg"
   xmlns="http://www.w3.org/2000/svg"
   xmlns:sodipodi="http://sodipodi.sourceforge.net/DTD/sodipodi-0.dtd"
   xmlns:inkscape="http://www.inkscape.org/namespaces/inkscape"
   inkscape:export-ydpi="96.000008"
   inkscape:export-xdpi="96.000008"
   inkscape:export-filename="/home/domenico/PycharmProjects/odoo-finance-v11/odoo-disaster/odoo-apps/web_pwa/static/description/icon.png"
   sodipodi:docname="icon.svg"
   inkscape:version="0.92.3 (2405546, 2018-03-11)"
   width="512"
   height="512"
   viewBox="0 0 135.46666 135.46667"
   version="1.1"
   id="svg868">
  <sodipodi:namedview
     id="base"
     pagecolor="#ffffff"
     bordercolor="#666666"
     borderopacity="1.0"
     inkscape:pageopacity="0.0"
     inkscape:pageshadow="2"
     inkscape:zoom="0.7"
     inkscape:cx="153.01249"
     inkscape:cy="161.58443"
     inkscape:document-units="mm"
     inkscape:current-layer="layer1"
     showgrid="false"
     units="px"
     inkscape:object-paths="true"
     inkscape:snap-bbox="true"
     inkscape:bbox-nodes="true"
     inkscape:snap-bbox-edge-midpoints="true"
     inkscape:snap-bbox-midpoints="true"
     inkscape:snap-smooth-nodes="true"
     inkscape:snap-midpoints="true"
     inkscape:snap-object-midpoints="true"
     inkscape:snap-center="true"
     inkscape:window-width="1853"
     inkscape:window-height="1025"
     inkscape:window-x="67"
     inkscape:window-y="27"
     inkscape:window-maximized="1" />
  <defs
     id="defs862">
    <mask
       id="mask3313"
       maskUnits="userSpaceOnUse">
      <rect
         y="161.49142"
         x="-0.53745759"
         height="135.77876"
         width="136.31329"
         id="rect3315"
         style="opacity:1;vector-effect:none;fill:#ffa600;fill-opacity:1;stroke:none;stroke-width:0.49709165;stroke-linecap:butt;stroke-linejoin:miter;stroke-miterlimit:4;stroke-dasharray:none;stroke-dashoffset:0;stroke-opacity:1" />
    </mask>
  </defs>
  <metadata
     id="metadata865">
    <rdf:RDF>
      <cc:Work
         rdf:about="">
        <dc:format>image/svg+xml</dc:format>
        <dc:type
           rdf:resource="http://purl.org/dc/dcmitype/StillImage" />
        <dc:title></dc:title>
      </cc:Work>
    </rdf:RDF>
  </metadata>
  <g
     style="display:inline"
     inkscape:groupmode="layer"
     id="layer2"
     inkscape:label="sfondo"
     sodipodi:insensitive="true">
    <rect
       style="opacity:1;vector-effect:none;fill:#ffa600;fill-opacity:1;stroke:none;stroke-width:0.49709162;stroke-linecap:butt;stroke-linejoin:miter;stroke-miterlimit:4;stroke-dasharray:none;stroke-dashoffset:0;stroke-opacity:1"
       id="rect1513"
       width="136.31329"
       height="135.77876"
       x="-0.53745759"
       y="-0.041902374" />
  </g>
  <g
     inkscape:label="Livello 1"
     inkscape:groupmode="layer"
     id="layer1"
     transform="translate(0,-161.53332)"
     style="display:inline;opacity:0.156">
    <path
       style="display:inline;opacity:1;vector-effect:none;fill:#000000;fill-opacity:1;stroke:none;stroke-width:1.87877154;stroke-linecap:butt;stroke-linejoin:miter;stroke-miterlimit:4;stroke-dasharray:none;stroke-dashoffset:0;stroke-opacity:1"
       d="m 248.56055,107.89648 v 0.01 c -1.66007,0 -3.00586,1.34578 -3.00586,3.00586 v 6.33398 l -17.09375,-0.68164 c -1.48648,-0.0631 -2.79617,0.98016 -3.07422,2.44336 l -7.06641,37.12696 c -3.88971,0.532 -7.82455,1.32587 -11.76953,2.32812 -0.0393,-0.0265 -0.0787,-0.0528 -0.11914,-0.0781 l -0.19726,-0.26954 c -0.23222,-0.31596 -0.5177,-0.57062 -0.83399,-0.76757 l -0.18555,-0.25196 c -0.23074,-0.3137 -0.51426,-0.56721 -0.82812,-0.76367 l -0.17383,-0.23633 c -0.22859,-0.31105 -0.50802,-0.56402 -0.81836,-0.75976 l -0.16406,-0.22266 c -0.22587,-0.30727 -0.50077,-0.55911 -0.80664,-0.7539 l -0.15625,-0.21094 c -0.22534,-0.30652 -0.4997,-0.55731 -0.80469,-0.75196 l -0.14062,-0.1914 c -0.22201,-0.30199 -0.49139,-0.55071 -0.79102,-0.74414 l -0.13477,-0.1836 c -0.2211,-0.30085 -0.48896,-0.54905 -0.7871,-0.74218 l -0.1211,-0.16407 c -0.21819,-0.29669 -0.48197,-0.54233 -0.77539,-0.73437 l -0.11328,-0.1543 c -0.21392,-0.29102 -0.47321,-0.53036 -0.75977,-0.7207 l -0.10937,-0.15039 c -0.21188,-0.288 -0.46867,-0.5253 -0.75195,-0.71485 l -0.0996,-0.13671 c -0.20844,-0.28347 -0.46054,-0.51701 -0.73829,-0.70508 l -0.0937,-0.12696 c -0.20588,-0.28006 -0.45489,-0.51029 -0.72852,-0.69726 l -0.0859,-0.11719 c -0.20239,-0.27515 -0.44671,-0.50211 -0.71484,-0.6875 l -0.0801,-0.10742 c -0.20069,-0.27288 -0.44354,-0.49701 -0.70898,-0.68164 l -0.0684,-0.0937 c -0.19677,-0.26759 -0.43417,-0.48718 -0.69336,-0.66992 l -0.0645,-0.0879 c -0.19271,-0.2623 -0.42484,-0.47747 -0.67773,-0.65821 l -0.0606,-0.082 c -0.19094,-0.25965 -0.42176,-0.47247 -0.67187,-0.65234 l -0.0488,-0.0664 c -0.18675,-0.25398 -0.41269,-0.46295 -0.65625,-0.64062 l -0.0449,-0.0625 c -0.18493,-0.25134 -0.40773,-0.45808 -0.64844,-0.63477 l -0.0352,-0.0469 c -0.18088,-0.24605 -0.39832,-0.44859 -0.63281,-0.62305 l -0.0312,-0.041 c -0.17662,-0.24037 -0.38927,-0.43733 -0.61719,-0.60937 l -0.0273,-0.0371 c -0.17461,-0.23735 -0.38453,-0.43264 -0.60938,-0.60352 l -0.0176,-0.0234 c -0.17148,-0.2332 -0.37761,-0.42473 -0.59766,-0.59375 l -0.01,-0.0156 c -0.16815,-0.22866 -0.37093,-0.41697 -0.58593,-0.58398 l -0.004,-0.006 c -0.1663,-0.2264 -0.3659,-0.41228 -0.57812,-0.57813 -0.16207,-0.21883 -0.35528,-0.40058 -0.56055,-0.5625 -0.15953,-0.21354 -0.34783,-0.3938 -0.54883,-0.55273 -0.15409,-0.20296 -0.33339,-0.37262 -0.52539,-0.52539 -0.14895,-0.19389 -0.32198,-0.36022 -0.50586,-0.50782 -0.14668,-0.18897 -0.314,-0.34957 -0.49414,-0.49414 -0.13878,-0.17574 -0.29477,-0.32997 -0.46289,-0.46679 -0.13671,-0.17197 -0.29008,-0.32241 -0.45508,-0.45703 -0.13005,-0.16101 -0.2745,-0.30194 -0.42969,-0.42969 -0.12653,-0.15534 -0.26589,-0.29404 -0.41601,-0.41797 -0.12121,-0.14665 -0.25398,-0.27819 -0.39649,-0.39648 -0.11572,-0.13834 -0.24014,-0.26433 -0.375,-0.37696 -0.11119,-0.13153 -0.23075,-0.25128 -0.35937,-0.35937 -0.10583,-0.12359 -0.21653,-0.23937 -0.33789,-0.3418 -0.10054,-0.11603 -0.20591,-0.22475 -0.32031,-0.32227 -0.0959,-0.1096 -0.19629,-0.21208 -0.30469,-0.30468 -0.0886,-0.0998 -0.18016,-0.19388 -0.2793,-0.2793 -0.086,-0.096 -0.17376,-0.18871 -0.26953,-0.27148 -0.0761,-0.0835 -0.15272,-0.16496 -0.23633,-0.23828 -0.0762,-0.0831 -0.15268,-0.16534 -0.23633,-0.23829 -0.0646,-0.0692 -0.12937,-0.13723 -0.19921,-0.19921 -0.0634,-0.0677 -0.12492,-0.13642 -0.19336,-0.19727 -0.0581,-0.0612 -0.11541,-0.12255 -0.17774,-0.17773 -0.0473,-0.0488 -0.0926,-0.0996 -0.14258,-0.14454 -0.0468,-0.048 -0.0912,-0.0984 -0.14062,-0.14257 -0.0351,-0.034 -0.069,-0.0722 -0.10547,-0.10547 -0.0344,-0.034 -0.0657,-0.0726 -0.10156,-0.10547 -0.0253,-0.0265 -0.0483,-0.052 -0.0742,-0.0762 -0.0208,-0.0189 -0.0394,-0.0432 -0.0606,-0.0625 -0.014,-0.0151 -0.0268,-0.0263 -0.041,-0.041 -0.006,-0.004 -0.0103,-0.012 -0.0156,-0.0195 0,0 -0.002,-0.002 -0.002,-0.002 -0.91881,-0.87107 -2.31012,-1.08458 -3.46485,-0.47657 l -18.15234,9.54297 c -1.31738,0.69211 -1.92868,2.24389 -1.43945,3.64844 l 12.43164,35.68164 c -4.88177,3.78607 -9.42443,7.99997 -13.54492,12.56836 l -34.60547,-15.19141 c -1.36248,-0.59822 -2.95716,-0.10961 -3.75,1.14844 l -10.94336,17.33789 c -0.69755,1.1054 -0.59084,2.51142 0.20898,3.4961 0.008,0.0113 0.0194,0.0198 0.0273,0.0273 0.0768,0.093 0.16459,0.17863 0.2539,0.26367 0.0317,0.0302 0.0565,0.065 0.0898,0.0937 l 0.002,0.002 c 0.003,0.002 0.005,0.004 0.008,0.008 h 0.002 l 0.0117,0.01 c 0.006,0.004 0.01,0.0118 0.0156,0.0156 0.0162,0.0151 0.0284,0.034 0.0449,0.0469 l 0.0176,0.0156 c 0.0181,0.0151 0.0302,0.0376 0.0488,0.0527 l 0.0195,0.0195 c 0.023,0.0227 0.0407,0.0456 0.0645,0.0664 l 0.0215,0.0176 c 0.0291,0.0265 0.0515,0.0599 0.082,0.0859 l 0.0254,0.0234 c 0.0336,0.0302 0.0602,0.069 0.0957,0.0996 l 0.0293,0.0274 c 0.0389,0.0378 0.0701,0.0797 0.11133,0.11523 l 0.0332,0.0254 c 0.0435,0.0423 0.0785,0.0908 0.125,0.13086 l 0.0371,0.0312 c 0.0484,0.0476 0.0884,0.10151 0.14062,0.14648 l 0.041,0.0332 c 0.0532,0.0533 0.0983,0.11222 0.15625,0.16211 l 0.0449,0.0391 c 0.0574,0.0582 0.10707,0.12173 0.16992,0.17578 l 0.0488,0.041 c 0.0623,0.0643 0.11665,0.13402 0.18555,0.19336 l 0.0527,0.0449 c 0.0663,0.0692 0.12533,0.14315 0.19922,0.20703 l 0.0566,0.0488 c 0.0707,0.0748 0.13529,0.15424 0.21485,0.22265 l 0.0644,0.0547 c 0.0739,0.079 0.14296,0.16256 0.22656,0.23438 l 0.0488,0.041 c 0.0831,0.0918 0.16388,0.18481 0.25976,0.26758 l 0.0566,0.0488 c 0.0859,0.096 0.16972,0.1935 0.26954,0.27929 l 0.0703,0.0606 c 0.0874,0.0983 0.17346,0.19709 0.27539,0.28516 l 0.0762,0.0644 c 0.0912,0.10394 0.1818,0.20818 0.28906,0.30078 l 0.0723,0.0625 c 0.0966,0.11225 0.19745,0.22129 0.3125,0.32031 l 0.0625,0.0547 c 0.10314,0.12284 0.21482,0.23994 0.33984,0.34766 l 0.0762,0.0644 c 0.10476,0.12548 0.21622,0.24744 0.34374,0.35742 l 0.0898,0.0781 c 0.10586,0.12775 0.22035,0.24983 0.34961,0.36133 l 0.0937,0.082 c 0.10945,0.13379 0.2303,0.26092 0.36523,0.37695 l 0.0977,0.084 c 0.1127,0.13984 0.23861,0.27174 0.3789,0.39257 l 0.11133,0.0957 c 0.11426,0.14286 0.24189,0.27744 0.38477,0.40039 l 0.125,0.10742 c 0.11535,0.14475 0.2459,0.2816 0.39062,0.40625 l 0.13672,0.11719 c 0.11713,0.14815 0.24876,0.28876 0.39649,0.41601 l 0.15234,0.13086 c 0.11819,0.15005 0.24888,0.29292 0.39844,0.42188 l 0.16992,0.14648 c 0.1186,0.15118 0.25013,0.29442 0.40039,0.42383 l 0.18555,0.16015 c 0.11966,0.15308 0.25218,0.29862 0.40429,0.42969 l 0.19922,0.17188 c 0.12072,0.15534 0.25421,0.30273 0.40821,0.43554 l 0.21484,0.1836 c 0.122,0.15798 0.25583,0.30877 0.41211,0.44336 l 0.22852,0.19726 c 0.12321,0.16026 0.25954,0.31293 0.41796,0.44922 l 0.24414,0.20899 c 0.12409,0.16214 0.25995,0.31746 0.41993,0.45507 l 0.25586,0.22071 c 0.12525,0.16478 0.26555,0.32124 0.42773,0.46094 l 0.26953,0.23242 c 0.12684,0.16781 0.26653,0.32844 0.43164,0.4707 l 0.28321,0.24414 c 0.12782,0.17008 0.27053,0.33072 0.4375,0.47461 l 0.29882,0.25781 c 0.12881,0.17235 0.27065,0.33714 0.43946,0.48242 l 0.3164,0.27344 c 0.12919,0.1731 0.27186,0.33826 0.44141,0.48438 l 0.33008,0.28515 c 0.13013,0.17537 0.27587,0.34242 0.44726,0.49024 l 0.33789,0.29101 c 0.13259,0.18104 0.28078,0.35224 0.45703,0.50391 l 0.35743,0.30664 c 0.13281,0.18142 0.2784,0.35565 0.45507,0.50781 l 0.3711,0.32032 c 0.13387,0.18406 0.28407,0.35755 0.46289,0.51171 l 0.38476,0.33203 c 0.13478,0.18596 0.28611,0.36397 0.4668,0.51954 l 0.40039,0.3457 c 0.13569,0.18822 0.28623,0.36812 0.46875,0.52539 l 0.41992,0.36133 c 0.13592,0.1886 0.28581,0.36962 0.46875,0.52734 l 0.42969,0.3711 c 0.13746,0.19275 0.29227,0.37456 0.47852,0.53515 l 0.44531,0.38281 c 0.13852,0.19541 0.29193,0.38252 0.48047,0.54493 l 0.45898,0.39453 c 0.13939,0.19767 0.29594,0.38483 0.48633,0.54883 l 0.47461,0.4082 c 0.14026,0.19994 0.29605,0.39106 0.48828,0.55664 l 0.49219,0.42383 c 0.14056,0.20069 0.2973,0.39237 0.49023,0.55859 l 0.50586,0.43555 c 0.14139,0.20296 0.29934,0.39664 0.49414,0.56445 l 0.22852,0.19727 c -1.80291,4.81636 -3.2676,9.79272 -4.36328,14.87304 l -37.544924,4.13086 c -1.333168,0.14665 -2.383012,1.15169 -2.625,2.42774 -0.0091,0.0457 -0.0069,0.0938 -0.01367,0.14062 -0.01965,0.13833 -0.03906,0.2763 -0.03906,0.41992 V 267.512 c 0,0.7697 0.292647,1.47826 0.775391,2.01367 0,0 0.002,0.002 0.002,0.002 0.0064,0.008 0.01468,0.012 0.02148,0.0195 0,0 0.002,0.002 0.002,0.002 0.01323,0.0151 0.02948,0.0263 0.04297,0.041 0.01776,0.0189 0.03831,0.0378 0.05664,0.0566 0.02872,0.034 0.06179,0.0604 0.0918,0.0918 0.02986,0.034 0.06456,0.0616 0.0957,0.0937 0.03553,0.0401 0.07579,0.0747 0.113281,0.11328 0.04483,0.0514 0.09631,0.0965 0.144531,0.14453 0.04675,0.0533 0.101925,0.0986 0.152344,0.14844 0.05446,0.0627 0.116292,0.11758 0.175781,0.17578 0.05983,0.0692 0.127483,0.12987 0.19336,0.19336 0.06482,0.0748 0.139051,0.14058 0.210937,0.20899 0.07158,0.0831 0.152107,0.15721 0.232422,0.23242 0.07676,0.0892 0.163298,0.1683 0.25,0.24805 0.081,0.0949 0.171527,0.17938 0.263672,0.26367 0.0892,0.10507 0.190166,0.19917 0.292969,0.29101 0.09305,0.10923 0.196857,0.20749 0.304687,0.30274 0.0991,0.11678 0.208376,0.2233 0.324219,0.32422 0.104504,0.12396 0.220537,0.23634 0.34375,0.34179 0.109984,0.13077 0.230594,0.25097 0.361328,0.36133 0.115087,0.1372 0.241059,0.2642 0.378906,0.37891 0.121059,0.14513 0.254059,0.27855 0.400391,0.39843 0.126463,0.15194 0.263961,0.29366 0.417969,0.41797 0.131754,0.15874 0.275717,0.30652 0.4375,0.43555 0.135685,0.16403 0.283576,0.31709 0.451172,0.44922 0.141921,0.17272 0.297489,0.33489 0.474609,0.47266 0.145361,0.17763 0.303985,0.34392 0.486328,0.48437 0.149783,0.18482 0.316233,0.3549 0.50586,0.5 0.154318,0.19276 0.324325,0.37151 0.521484,0.52148 0.159042,0.2007 0.337812,0.38441 0.542969,0.53907 0.163691,0.209 0.349191,0.39906 0.5625,0.55859 0.167924,0.21619 0.359316,0.41233 0.580078,0.57617 0.172082,0.22413 0.369221,0.42733 0.597656,0.59571 0.176315,0.23244 0.380907,0.44051 0.617187,0.61328 0.1807,0.24075 0.392142,0.4554 0.636719,0.63281 0.184441,0.24831 0.400314,0.46878 0.652334,0.65039 0.18789,0.25625 0.41267,0.48209 0.67188,0.66797 0.19302,0.26646 0.42581,0.50031 0.69531,0.6914 0.19627,0.27364 0.43262,0.51239 0.70899,0.70704 0.19993,0.28195 0.44608,0.5258 0.73047,0.72461 0.20356,0.29064 0.45538,0.54286 0.74804,0.74609 0.20739,0.29934 0.46639,0.55832 0.76758,0.76562 0.21018,0.30615 0.47543,0.56878 0.7832,0.7793 0.21461,0.3171 0.4882,0.58711 0.80664,0.80274 0.21695,0.32352 0.49579,0.59971 0.82032,0.81836 0.22102,0.33448 0.50885,0.61651 0.84375,0.83984 0.22405,0.34205 0.51878,0.63084 0.86132,0.85742 0.227,0.35074 0.52819,0.64659 0.87891,0.87695 0.23002,0.35944 0.5393,0.66058 0.89844,0.89453 0.23289,0.36775 0.54874,0.67487 0.91601,0.91211 0.23573,0.37758 0.55726,0.69028 0.9336,0.93165 0.23928,0.38759 0.57249,0.70809 0.95898,0.95312 0.24242,0.39651 0.58098,0.72453 0.97656,0.97266 0.24601,0.4058 0.59055,0.73923 0.9961,0.99023 0.2493,0.4145 0.60075,0.75819 1.01562,1.01172 0.25233,0.42225 0.60986,0.77166 1.03321,1.02734 0.25557,0.43197 0.61922,0.79035 1.05273,1.04883 0.25848,0.43979 0.62825,0.80397 1.07031,1.06445 0.26162,0.44954 0.6375,0.82285 1.08985,1.08594 0.22273,0.38532 0.52994,0.71327 0.89648,0.9668 l -16.78906,14.43945 c -0.70566,0.60718 -1.06672,1.48042 -1.04492,2.35742 0.009,0.35112 0.0784,0.70266 0.21289,1.03711 0.0669,0.16857 0.15079,0.33109 0.25,0.48828 l 10.94336,17.33789 c 0.002,0.004 0.006,0.008 0.008,0.0117 0.099,0.15534 0.2086,0.29862 0.33008,0.42969 0.001,0.001 0.003,0.003 0.004,0.004 0.007,0.008 0.0163,0.0139 0.0234,0.0215 0.0129,0.0151 0.028,0.0266 0.041,0.0391 0.0193,0.0227 0.0409,0.0382 0.0605,0.0586 0.0257,0.0265 0.0535,0.0529 0.0801,0.0801 0.0299,0.034 0.0626,0.062 0.0937,0.0937 0.0399,0.0446 0.0847,0.083 0.12696,0.125 0.0401,0.0446 0.0845,0.083 0.12695,0.125 0.0512,0.0578 0.10715,0.10881 0.16211,0.16211 0.0536,0.0601 0.11228,0.11278 0.16992,0.16796 0.0592,0.0673 0.12336,0.12665 0.1875,0.1875 0.0683,0.0782 0.14376,0.14688 0.21875,0.2168 0.0697,0.0798 0.14597,0.14965 0.22266,0.2207 0.0793,0.0915 0.16557,0.17574 0.2539,0.25586 0.0828,0.0956 0.17295,0.18053 0.26563,0.26368 0.0889,0.10318 0.18676,0.19438 0.28711,0.2832 0.0923,0.10772 0.19218,0.20465 0.29687,0.29687 0.10118,0.11944 0.21191,0.22564 0.32813,0.32618 0.10635,0.12548 0.22087,0.23943 0.34375,0.34375 0.10941,0.12926 0.22855,0.2446 0.35547,0.35156 0.11705,0.13984 0.24359,0.26683 0.38086,0.38086 0.12109,0.14513 0.25372,0.27515 0.39648,0.39258 0.12782,0.1542 0.26589,0.29479 0.41797,0.41796 0.13357,0.16177 0.27745,0.30995 0.4375,0.4375 0.13735,0.1663 0.28588,0.31898 0.45117,0.44922 0.14423,0.17613 0.30134,0.33866 0.47656,0.47461 0.14914,0.18255 0.30996,0.35073 0.49219,0.49024 0.15379,0.18897 0.32065,0.36659 0.50977,0.50976 0.15658,0.19351 0.32814,0.37042 0.52148,0.51563 0.16154,0.2022 0.3377,0.3886 0.53906,0.53906 0.1671,0.21203 0.35225,0.40288 0.5625,0.55859 0.17152,0.21959 0.36253,0.41638 0.58008,0.57618 0.17628,0.22828 0.37406,0.43136 0.59961,0.5957 0.17889,0.23395 0.38105,0.4419 0.61133,0.60937 0.18482,0.24567 0.39598,0.4614 0.63672,0.63477 0.18901,0.25361 0.4081,0.47508 0.65625,0.65234 0.19249,0.26079 0.41728,0.48723 0.67187,0.66797 0.19639,0.26986 0.42731,0.50039 0.68946,0.68555 0.20152,0.28082 0.44094,0.52079 0.71289,0.71094 0.20435,0.28724 0.44897,0.52956 0.72656,0.72265 0.20878,0.29745 0.46153,0.54831 0.74805,0.7461 0.21259,0.30614 0.47328,0.56218 0.76757,0.76367 0.21578,0.31445 0.482,0.57418 0.78321,0.77929 0.21959,0.32467 0.49294,0.59129 0.80273,0.80079 0.22371,0.33486 0.50541,0.60665 0.82422,0.82031 0.22643,0.34242 0.51461,0.61918 0.83984,0.83594 0.22999,0.35263 0.52559,0.63654 0.85938,0.85742 0.23357,0.36245 0.53862,0.65252 0.88086,0.87695 0.23652,0.37077 0.54709,0.66704 0.89648,0.89453 l 0.002,0.002 c 0.23989,0.38022 0.55831,0.6793 0.91602,0.91015 l 0.01,0.0156 c 0.24306,0.38521 0.56607,0.69007 0.92968,0.92187 l 0.0156,0.0234 c 0.24521,0.38861 0.57182,0.69338 0.93945,0.92578 l 0.0234,0.0371 c 0.24801,0.39303 0.58022,0.70239 0.95312,0.93555 l 0.0293,0.0469 c 0.25085,0.39753 0.58664,0.70952 0.96485,0.94336 l 0.0371,0.0586 c 0.25312,0.40112 0.59209,0.71289 0.97461,0.94726 l 0.0449,0.0723 c 0.25462,0.4035 0.59706,0.71642 0.98242,0.95117 l 0.0547,0.0879 c 0.25739,0.40792 0.60547,0.72371 0.9961,0.95898 l 0.0606,0.0977 c 0.26003,0.41212 0.61215,0.73099 1.00781,0.9668 l 0.0684,0.10937 c 0.2632,0.41711 0.61981,0.74019 1.02148,0.97656 l 0.0742,0.11719 c 0.26555,0.42085 0.62508,0.74567 1.03125,0.98242 l 0.082,0.13086 c 0.26737,0.42373 0.62938,0.75131 1.03906,0.98828 l 0.0918,0.14453 c 0.27012,0.42811 0.6378,0.75874 1.05274,0.9961 l 0.0976,0.1543 c 0.27307,0.43275 0.64578,0.76621 1.06641,1.0039 l 0.10351,0.16406 c 0.27489,0.43567 0.65007,0.7738 1.07422,1.01172 l 0.11328,0.17774 c 0.27787,0.44035 0.65802,0.77939 1.08789,1.01758 l 0.11914,0.18945 c 0.28082,0.44504 0.66597,0.78701 1.10157,1.02539 l 0.125,0.19922 c 0.28342,0.44916 0.67066,0.79468 1.11133,1.0332 l 0.13281,0.21094 c 0.28558,0.4526 0.67621,0.80241 1.12109,1.04101 l 0.14063,0.22266 c 0.28822,0.45683 0.6847,0.80816 1.13476,1.04688 l 0.14844,0.23437 c 0.29038,0.46016 0.68838,0.81402 1.14258,1.05274 l 0.15625,0.24804 c 0.29333,0.46492 0.69817,0.82187 1.1582,1.06055 l 0.16211,0.25781 c 0.29598,0.46908 0.70276,0.82972 1.16797,1.06836 l 0.16992,0.26953 c 0.2973,0.4712 0.70798,0.8337 1.17578,1.07227 l 0.17969,0.2832 c 0.29964,0.4749 0.71508,0.83768 1.1875,1.07617 l 0.1875,0.30078 c 0.3018,0.47827 0.72066,0.84366 1.19727,1.08203 l 0.19726,0.31055 c 0.30376,0.4814 0.72457,0.84967 1.20508,1.08789 l 0.20703,0.32617 c 0.30561,0.48439 0.73259,0.84982 1.2168,1.08789 l 0.21484,0.3418 c 0.30762,0.48752 0.73651,0.85587 1.22461,1.09375 l 0.22461,0.35742 c 0.30894,0.4896 0.74169,0.85794 1.23242,1.09571 l 0.23633,0.37304 c 0.31124,0.49331 0.74878,0.86211 1.24414,1.09961 l 0.24414,0.38672 c 0.31325,0.49641 0.75272,0.86823 1.25195,1.10547 l 0.25391,0.40234 c 0.31529,0.49966 0.76035,0.87049 1.26367,1.10743 l 0.26172,0.41601 c 0.31688,0.50219 0.76306,0.87657 1.26953,1.11328 l 0.27344,0.43164 c 0.31888,0.5054 0.77073,0.87883 1.28125,1.11524 l 0.28125,0.44531 c 0.32043,0.50786 0.77546,0.88303 1.28906,1.11914 l 0.29102,0.46289 c 0.32288,0.51171 0.78231,0.88736 1.30078,1.12305 l 0.30078,0.47656 c 0.32451,0.51432 0.78487,0.8916 1.30664,1.12695 l 0.31055,0.49219 c 0.32602,0.5167 0.79161,0.89386 1.3164,1.12891 l 0.32032,0.50781 c 0.32802,0.51991 0.79739,0.89818 1.32617,1.13281 l 0.33008,0.52344 c 0.33052,0.52381 0.80415,0.90464 1.33789,1.13867 l 0.33789,0.53516 c 0.33248,0.52694 0.80797,0.909 1.3457,1.14258 l 0.34766,0.55078 c 0.33415,0.52959 0.81247,0.91336 1.35351,1.14648 l 0.35743,0.56446 c 0.33569,0.53204 0.81908,0.91768 1.36328,1.15039 l 0.36718,0.58203 c 0.33801,0.53567 0.82623,0.92024 1.375,1.15234 l 0.375,0.5957 c 0.33956,0.53817 0.82894,0.9266 1.38086,1.15821 l 0.38672,0.61133 c 0.34163,0.54145 0.83647,0.92915 1.39258,1.16015 l 0.39453,0.625 c 0.34341,0.54425 0.84073,0.93363 1.40039,1.16406 l 0.4043,0.64258 c 0.3453,0.5472 0.8467,0.93814 1.41016,1.16797 l 0.41406,0.65625 c 0.3476,0.55091 0.8537,0.9428 1.42187,1.17188 l 0.42188,0.66992 c 0.34904,0.55313 0.85672,0.94719 1.42773,1.17578 l 0.4336,0.6875 c 0.35126,0.55669 0.86391,0.95189 1.43945,1.17969 l 0.44141,0.69922 c 0.35266,0.55887 0.86694,0.95633 1.44531,1.18359 l 0.45312,0.7168 c 0.35479,0.56224 0.8744,0.95911 1.45703,1.18554 l 0.46094,0.73242 c 0.3569,0.56565 0.87985,0.96581 1.4668,1.19141 l 0.4707,0.74414 c 0.35868,0.56848 0.88405,0.97047 1.47461,1.19531 l 0.48047,0.75977 c 0.36019,0.57082 0.88881,0.97303 1.48242,1.19727 l 0.49024,0.77734 c 0.36287,0.57513 0.89701,0.98006 1.49609,1.20312 l 0.49805,0.78907 c 0.36438,0.57751 0.8998,0.98265 1.50195,1.20507 l 0.50781,0.80665 c 0.36654,0.58087 0.9072,0.98949 1.51367,1.21093 l 0.51758,0.81836 c 0.36824,0.58356 0.91153,0.9942 1.52149,1.21485 l 0.52734,0.83398 c 0.36975,0.58605 0.9162,0.9969 1.5293,1.2168 l 0.53711,0.85156 c 0.37167,0.58904 0.9221,1.00172 1.53906,1.2207 l 0.54687,0.86524 c 0.37403,0.59274 0.92908,1.00683 1.55078,1.22461 l 0.55469,0.8789 c 0.37531,0.59475 0.93232,1.01138 1.55664,1.22852 l 0.56641,0.89648 c 0.37765,0.59853 0.93922,1.01654 1.56836,1.23242 l 0.57422,0.91016 c 0.37936,0.60121 0.94355,1.02135 1.57617,1.23633 l 0.58398,0.92383 c 0.38131,0.60431 0.94938,1.02631 1.58594,1.24023 l 0.59375,0.93945 c 0.38329,0.60745 0.95507,1.03136 1.5957,1.24415 l 0.60352,0.95507 c 0.38515,0.6104 0.96106,1.03437 1.60547,1.2461 l 0.61133,0.9707 c 0.38714,0.61357 0.96675,1.03944 1.61523,1.25 l 0.62109,0.98633 c 0.38882,0.61618 0.97115,1.04433 1.62305,1.25391 l 0.63086,1 c 0.39078,0.61931 0.97691,1.04944 1.63281,1.25781 l 0.64063,1.01562 c 0.39325,0.62325 0.98356,1.05686 1.64453,1.26367 l 0.64844,1.02735 c 0.39524,0.62642 0.9873,1.06205 1.65234,1.26758 l 0.6582,1.04297 c 0.39609,0.62766 0.99343,1.06452 1.66016,1.26953 l 0.66797,1.06054 c 0.39794,0.63069 0.99742,1.0677 1.66797,1.27149 l 0.67969,1.07617 c 0.39944,0.63307 1.00214,1.07063 1.67578,1.27344 l 0.6914,1.09375 c 0.40135,0.63609 1.00803,1.0739 1.68555,1.27539 l 0.70117,1.10937 c 0.40287,0.63848 1.01274,1.07688 1.69336,1.27735 l 0.71094,1.12695 c 0.40395,0.64021 1.01638,1.07767 1.69922,1.27734 l 0.72265,1.14649 c 0.40586,0.6432 1.02228,1.08094 1.70899,1.27929 l 0.73242,1.16211 c 0.40737,0.64562 1.02697,1.08396 1.7168,1.28125 l 0.74414,1.17969 c 0.40889,0.64804 1.03166,1.08708 1.72461,1.2832 l 0.7539,1.19532 c 0.41042,0.65042 1.03638,1.09013 1.73242,1.28515 l 0.76563,1.21289 c 0.41231,0.65345 1.04227,1.09353 1.74219,1.28711 l 0.77539,1.22852 c 0.41309,0.65469 1.04457,1.09604 1.74609,1.28906 l 0.78906,1.24805 c 0.41463,0.65707 1.04927,1.09721 1.75391,1.28906 l 0.31445,0.49609 h 223.01563 v -276.5957 c -0.42502,-0.46899 -0.87349,-0.91548 -1.36719,-1.3125 -0.54308,-0.67642 -1.1572,-1.29191 -1.83203,-1.83594 -0.53832,-0.6689 -1.14706,-1.27722 -1.81445,-1.8164 -0.5328,-0.66032 -1.13409,-1.26126 -1.79297,-1.79492 -0.52774,-0.65299 -1.12223,-1.24837 -1.77344,-1.77735 -0.52414,-0.64747 -1.11407,-1.23632 -1.75977,-1.76172 -0.51889,-0.63915 -1.10262,-1.22231 -1.74023,-1.74218 -0.51352,-0.63092 -1.08934,-1.20819 -1.71875,-1.72266 -0.50906,-0.62423 -1.08041,-1.19503 -1.70312,-1.70508 -0.50344,-0.61572 -1.06743,-1.17921 -1.68164,-1.68359 -0.49905,-0.60907 -1.05643,-1.16805 -1.66407,-1.66797 -0.49292,-0.60019 -1.04394,-1.15047 -1.64258,-1.64453 -0.49099,-0.59687 -1.03911,-1.145 -1.63476,-1.63672 -0.48544,-0.58772 -1.0261,-1.12792 -1.61328,-1.61328 -0.48072,-0.58016 -1.01363,-1.11559 -1.59375,-1.59571 -0.47581,-0.57218 -1.00151,-1.10161 -1.57422,-1.57617 -0.46719,-0.56009 -0.98269,-1.0786 -1.54297,-1.54492 -0.46719,-0.56013 -0.98265,-1.07665 -1.54297,-1.54297 -0.45948,-0.54848 -0.96458,-1.05747 -1.51367,-1.51562 -0.45502,-0.54199 -0.95542,-1.04439 -1.49805,-1.49805 -0.44935,-0.53401 -0.94195,-1.03045 -1.47656,-1.47852 -0.44368,-0.52611 -0.93047,-1.01444 -1.45703,-1.45703 -0.43937,-0.5201 -0.92085,-1.00305 -1.44141,-1.4414 -0.43192,-0.51009 -0.90386,-0.9847 -1.41406,-1.41602 -0.43083,-0.50853 -0.90155,-0.97993 -1.41016,-1.41015 -0.42285,-0.49713 -0.88343,-0.96083 -1.38086,-1.38282 -0.41937,-0.49228 -0.87651,-0.95063 -1.36914,-1.36914 -0.41283,-0.48321 -0.86215,-0.93373 -1.3457,-1.3457 -0.41087,-0.48 -0.85522,-0.92834 -1.33594,-1.33789 -0.40051,-0.46587 -0.8342,-0.90151 -1.30078,-1.30078 -0.39719,-0.46197 -0.82686,-0.89451 -1.28906,-1.29102 -0.39224,-0.45524 -0.81605,-0.88188 -1.27148,-1.27344 -0.38964,-0.45127 -0.80988,-0.87314 -1.26172,-1.26171 -0.38181,-0.44036 -0.7912,-0.85397 -1.23243,-1.23438 -0.37417,-0.43064 -0.77785,-0.83384 -1.20898,-1.20703 -0.37002,-0.42577 -0.76767,-0.82568 -1.19336,-1.19531 -0.36699,-0.42165 -0.76191,-0.8171 -1.18359,-1.1836 -0.3583,-0.41027 -0.74215,-0.79637 -1.15235,-1.15429 -0.35641,-0.40804 -0.73852,-0.79218 -1.14648,-1.14844 -0.34885,-0.39768 -0.72338,-0.77082 -1.12109,-1.11914 -0.34356,-0.39122 -0.7105,-0.76015 -1.10157,-1.10352 -0.33864,-0.3846 -0.69949,-0.74763 -1.08398,-1.08594 -0.33184,-0.37606 -0.68655,-0.73062 -1.0625,-1.0625 -0.32995,-0.37379 -0.68116,-0.72683 -1.05469,-1.05664 -0.32088,-0.36207 -0.66155,-0.70473 -1.02344,-1.02539 -0.31483,-0.35452 -0.64984,-0.68907 -1.0039,-1.0039 -0.31144,-0.35037 -0.64232,-0.68046 -0.99219,-0.99219 -0.30803,-0.34621 -0.63464,-0.6742 -0.98047,-0.98242 -0.29745,-0.3326 -0.6129,-0.64771 -0.94531,-0.94531 -0.29632,-0.33109 -0.60867,-0.64506 -0.93945,-0.94141 -0.28914,-0.32239 -0.59385,-0.62865 -0.91602,-0.91797 -0.28309,-0.31483 -0.58207,-0.6134 -0.89648,-0.89648 -0.27931,-0.30993 -0.57301,-0.60554 -0.88282,-0.88477 -0.27099,-0.30009 -0.55767,-0.58433 -0.85742,-0.85547 -0.26835,-0.29669 -0.54927,-0.57931 -0.8457,-0.84766 -0.25928,-0.28573 -0.5309,-0.55893 -0.81641,-0.81835 -0.25701,-0.28271 -0.52615,-0.55163 -0.80859,-0.8086 -0.24643,-0.27061 -0.50531,-0.52851 -0.77539,-0.77539 -0.24567,-0.26948 -0.5025,-0.52735 -0.77149,-0.77344 -0.24038,-0.26267 -0.49145,-0.51364 -0.7539,-0.7539 -0.2298,-0.25021 -0.46878,-0.49072 -0.71875,-0.72071 -0.22829,-0.24869 -0.46657,-0.48618 -0.71485,-0.71484 -0.2211,-0.24 -0.45167,-0.47004 -0.6914,-0.69141 -0.21393,-0.23206 -0.43636,-0.45535 -0.66797,-0.66992 -0.2109,-0.22828 -0.43034,-0.44681 -0.65821,-0.6582 -0.20409,-0.21997 -0.41502,-0.43244 -0.63476,-0.63672 -0.19616,-0.21165 -0.40039,-0.41449 -0.61133,-0.61133 -0.19616,-0.21127 -0.3987,-0.41487 -0.60937,-0.61133 -0.18482,-0.19804 -0.37648,-0.38902 -0.57422,-0.57421 -0.18066,-0.19352 -0.36772,-0.37955 -0.56055,-0.56055 -0.17499,-0.18671 -0.35453,-0.36775 -0.54102,-0.54297 -0.16667,-0.17802 -0.33825,-0.35037 -0.51562,-0.51758 -0.16743,-0.17839 -0.33941,-0.35149 -0.51758,-0.51953 -0.15307,-0.16214 -0.3107,-0.31936 -0.47265,-0.47266 -0.15572,-0.16516 -0.31595,-0.32467 -0.48047,-0.48046 -0.14325,-0.15119 -0.29064,-0.29783 -0.44141,-0.44141 -0.13984,-0.1474 -0.2827,-0.29142 -0.42969,-0.43164 -0.13455,-0.14173 -0.27252,-0.27891 -0.41406,-0.41406 -0.12775,-0.13418 -0.25852,-0.26457 -0.39258,-0.39258 -0.12132,-0.12699 -0.24448,-0.25135 -0.37109,-0.37305 -0.11566,-0.12094 -0.23295,-0.23944 -0.35352,-0.35547 -0.1096,-0.11452 -0.22179,-0.22595 -0.33594,-0.33593 -0.10469,-0.10923 -0.21184,-0.21525 -0.32031,-0.32032 -0.0945,-0.0979 -0.1896,-0.19419 -0.28711,-0.28906 -0.0975,-0.10129 -0.19596,-0.20094 -0.29687,-0.29883 -0.0828,-0.0854 -0.16654,-0.17075 -0.25195,-0.2539 -0.0771,-0.0797 -0.15501,-0.15885 -0.23438,-0.23633 -0.0763,-0.079 -0.15381,-0.1557 -0.23242,-0.23242 -0.0703,-0.0722 -0.1407,-0.1426 -0.21289,-0.2129 -0.0586,-0.0601 -0.11802,-0.11915 -0.17774,-0.17773 -0.0556,-0.0567 -0.11165,-0.11241 -0.16797,-0.16797 -0.0469,-0.0476 -0.093,-0.0957 -0.14062,-0.14258 -0.0491,-0.0499 -0.0985,-0.0993 -0.14844,-0.14843 -0.0302,-0.0302 -0.062,-0.0643 -0.0937,-0.0957 -0.034,-0.034 -0.0648,-0.0671 -0.0976,-0.0996 l -0.084,-0.084 c -0.0151,-0.0151 -0.0302,-0.0302 -0.0469,-0.0449 -0.0151,-0.0151 -0.0266,-0.0263 -0.0391,-0.041 l -0.0117,-0.0117 c -9.9e-4,-9.8e-4 -9.8e-4,-0.003 -0.002,-0.004 l -0.01,-0.0117 c -0.26646,-0.26759 -0.54721,-0.52224 -0.83789,-0.76367 -2.06314,-1.71345 -4.70676,-2.7461 -7.58789,-2.7461 h -0.002 c -5.53852,0 -10.19343,3.81494 -11.52734,8.95899 h -54.13281 c -0.79662,0 -1.56137,0.31594 -2.125,0.8789 l -18.91407,18.88477 c -0.14332,-0.14098 -0.29507,-0.27249 -0.44531,-0.40625 -0.29533,-0.32958 -0.60783,-0.64236 -0.9375,-0.9375 -0.29783,-0.33298 -0.61249,-0.64944 -0.94531,-0.94727 -0.28411,-0.31634 -0.5846,-0.61602 -0.90039,-0.90039 -0.28604,-0.31899 -0.58805,-0.62167 -0.90625,-0.9082 -0.27961,-0.3103 -0.57457,-0.60519 -0.88477,-0.88477 -0.27239,-0.30122 -0.55807,-0.58909 -0.85937,-0.86132 -0.26514,-0.29254 -0.54348,-0.57081 -0.83594,-0.83594 -0.26264,-0.28951 -0.5387,-0.56545 -0.82813,-0.82813 -0.25549,-0.28082 -0.52197,-0.54926 -0.80273,-0.80468 -0.24503,-0.26873 -0.50128,-0.52601 -0.76953,-0.77149 -0.24703,-0.27137 -0.50666,-0.52971 -0.77735,-0.77734 -0.24173,-0.26419 -0.49357,-0.51807 -0.75781,-0.75977 -0.22828,-0.24869 -0.46658,-0.48645 -0.71484,-0.71484 -0.22942,-0.24983 -0.46915,-0.48903 -0.71875,-0.71875 -0.21865,-0.23736 -0.44666,-0.46465 -0.6836,-0.6836 -0.21679,-0.23546 -0.44101,-0.46244 -0.67578,-0.67968 -0.209,-0.22602 -0.42668,-0.44296 -0.65234,-0.65235 -0.20451,-0.22072 -0.41632,-0.43378 -0.63672,-0.63867 -0.19695,-0.21203 -0.40163,-0.41591 -0.61328,-0.61328 -0.19457,-0.20939 -0.39656,-0.41052 -0.60547,-0.60547 -0.18459,-0.19805 -0.37482,-0.38925 -0.57226,-0.57422 -0.18497,-0.19804 -0.37637,-0.38902 -0.57422,-0.57422 -0.17159,-0.18293 -0.34863,-0.35943 -0.53125,-0.53125 -0.16619,-0.17726 -0.33713,-0.34887 -0.51368,-0.51562 -0.16618,-0.17726 -0.33709,-0.34884 -0.51367,-0.51563 -0.15624,-0.16592 -0.31706,-0.32579 -0.48242,-0.48242 -0.15246,-0.16176 -0.30955,-0.31786 -0.4707,-0.4707 -0.14487,-0.15307 -0.29265,-0.30198 -0.44531,-0.44727 -0.14393,-0.15193 -0.29174,-0.29936 -0.44336,-0.44336 -0.13036,-0.13682 -0.26378,-0.26984 -0.40039,-0.40039 -0.1253,-0.13152 -0.25171,-0.26078 -0.38282,-0.38672 -0.12404,-0.13039 -0.25115,-0.25624 -0.38086,-0.38085 -0.11527,-0.12057 -0.23332,-0.23787 -0.35351,-0.35352 -0.11324,-0.1183 -0.22775,-0.23389 -0.3457,-0.34766 -0.1013,-0.10545 -0.20548,-0.2073 -0.31055,-0.30859 -0.0946,-0.0983 -0.18926,-0.19615 -0.28711,-0.29102 -0.0949,-0.0986 -0.19087,-0.19577 -0.28906,-0.29101 -0.0887,-0.0918 -0.17991,-0.18071 -0.27149,-0.26953 -0.0741,-0.0764 -0.14845,-0.15211 -0.22461,-0.22657 -0.0798,-0.0824 -0.16002,-0.16401 -0.24218,-0.24414 -0.0618,-0.0635 -0.12439,-0.12551 -0.1875,-0.1875 -0.0636,-0.0654 -0.12828,-0.1291 -0.19336,-0.19336 -0.0586,-0.0601 -0.11787,-0.11915 -0.17774,-0.17773 -0.0436,-0.0446 -0.0866,-0.0874 -0.13086,-0.13086 -0.0497,-0.0506 -0.0999,-0.10245 -0.15039,-0.15234 -0.0302,-0.0302 -0.0594,-0.0616 -0.0898,-0.0918 -0.0351,-0.034 -0.0698,-0.0703 -0.10547,-0.10547 -0.0234,-0.0227 -0.0468,-0.0469 -0.0703,-0.0703 -0.0193,-0.0189 -0.0374,-0.0393 -0.0566,-0.0586 l -0.0352,-0.0352 c -0.002,-0.002 -0.004,-0.004 -0.006,-0.008 -0.005,-0.004 -0.009,-0.0118 -0.0137,-0.0156 -0.001,-0.001 -0.003,-7.4e-4 -0.004,-0.002 -0.26884,-0.26986 -0.5504,-0.52632 -0.84375,-0.76953 -10e-4,-9.5e-4 -0.003,-0.001 -0.004,-0.002 -2.06159,-1.70819 -4.70194,-2.73632 -7.57813,-2.73632 -2.72585,0 -5.23357,0.92705 -7.24805,2.46679 -0.0783,-0.0548 -0.1626,-0.10081 -0.24609,-0.14843 -0.26676,-0.47056 -0.65173,-0.85835 -1.12109,-1.12696 -0.26423,-0.46038 -0.64216,-0.83973 -1.10157,-1.10547 -0.26127,-0.4504 -0.63082,-0.82483 -1.08007,-1.08789 -0.25883,-0.44205 -0.62361,-0.80768 -1.06446,-1.06836 -0.25606,-0.43306 -0.61318,-0.79271 -1.04492,-1.05078 -0.25357,-0.42425 -0.60416,-0.77797 -1.02734,-1.0332 -0.25032,-0.41386 -0.59306,-0.75981 -1.00586,-1.01172 -0.24722,-0.40517 -0.58449,-0.74492 -0.98828,-0.99414 -0.24465,-0.39696 -0.57686,-0.72822 -0.97266,-0.97461 -0.24132,-0.38767 -0.56285,-0.71577 -0.94922,-0.95898 -0.23811,-0.3783 -0.55647,-0.69773 -0.93359,-0.9375 -0.23494,-0.36964 -0.54566,-0.6834 -0.91407,-0.91993 -0.2313,-0.36019 -0.53551,-0.66527 -0.89453,-0.89843 -0.22839,-0.35263 -0.52548,-0.65452 -0.87695,-0.88477 -0.22469,-0.34318 -0.51555,-0.63704 -0.85742,-0.86328 -0.22159,-0.33487 -0.50783,-0.62286 -0.8418,-0.8457 -0.21717,-0.32429 -0.49491,-0.60569 -0.81836,-0.82422 v -0.002 c -0.21607,-0.31974 -0.49265,-0.59642 -0.8125,-0.8125 -0.20931,-0.30463 -0.47083,-0.56983 -0.77539,-0.77929 -0.20526,-0.29859 -0.46479,-0.55445 -0.76172,-0.76172 -0.20235,-0.29291 -0.45694,-0.545 -0.74804,-0.75 -0.19956,-0.28573 -0.44786,-0.53496 -0.73243,-0.73633 -0.196,-0.27704 -0.43842,-0.51808 -0.71484,-0.71484 -0.1906,-0.26608 -0.42212,-0.49814 -0.6875,-0.68946 -0.18588,-0.25776 -0.4114,-0.48242 -0.66797,-0.66992 -0.18516,-0.25549 -0.4093,-0.47983 -0.66406,-0.66601 -0.17915,-0.24265 -0.39215,-0.45573 -0.63477,-0.63477 -0.17389,-0.23357 -0.3781,-0.44077 -0.61132,-0.61523 -0.17031,-0.22753 -0.37271,-0.42633 -0.59961,-0.59766 -0.16713,-0.22148 -0.3611,-0.41828 -0.58203,-0.58594 -0.16014,-0.20938 -0.34598,-0.39582 -0.55469,-0.55664 -0.1584,-0.20636 -0.3411,-0.38971 -0.54688,-0.54883 -0.15239,-0.19578 -0.32602,-0.37078 -0.52148,-0.52343 -0.14737,-0.18785 -0.31469,-0.35602 -0.50195,-0.50391 -0.14208,-0.17991 -0.30353,-0.34132 -0.48243,-0.48438 -0.13905,-0.17499 -0.29665,-0.3307 -0.4707,-0.4707 -0.13346,-0.16592 -0.28202,-0.31707 -0.44727,-0.45117 -0.12691,-0.15609 -0.2685,-0.29784 -0.42382,-0.42578 -0.12488,-0.15307 -0.26373,-0.29215 -0.41602,-0.41797 -0.1203,-0.14551 -0.25315,-0.27779 -0.39844,-0.39844 -0.11236,-0.13379 -0.23339,-0.25846 -0.36718,-0.37109 -0.10916,-0.12964 -0.22813,-0.24782 -0.35743,-0.35742 -0.10106,-0.11868 -0.20997,-0.22841 -0.32812,-0.33008 -0.1,-0.11717 -0.20758,-0.22564 -0.32422,-0.32617 -0.0933,-0.10772 -0.19119,-0.20901 -0.29883,-0.30274 -0.0865,-0.099 -0.17866,-0.19041 -0.27734,-0.27734 -0.0804,-0.0915 -0.16511,-0.17693 -0.25586,-0.25781 -0.0793,-0.09 -0.16257,-0.17416 -0.25195,-0.25391 -0.0694,-0.0771 -0.1418,-0.14921 -0.21875,-0.21875 -0.0658,-0.0729 -0.13255,-0.14284 -0.20508,-0.20898 -0.0601,-0.0658 -0.12174,-0.12899 -0.1875,-0.18946 -0.0523,-0.0567 -0.10557,-0.11152 -0.16211,-0.16406 -0.0506,-0.0548 -0.10179,-0.10718 -0.15625,-0.1582 -0.04,-0.0427 -0.0807,-0.0826 -0.12305,-0.12305 -0.0393,-0.0419 -0.0776,-0.0834 -0.11914,-0.12305 -0.0295,-0.0302 -0.0591,-0.0604 -0.0898,-0.0898 -0.0246,-0.0265 -0.0486,-0.0512 -0.0742,-0.0762 -0.0185,-0.0189 -0.0359,-0.0381 -0.0547,-0.0566 -0.0121,-0.0113 -0.0231,-0.0258 -0.0352,-0.0371 -0.005,-0.004 -0.009,-0.0118 -0.0137,-0.0156 -0.002,-0.002 -0.004,-0.002 -0.006,-0.004 -0.002,-0.002 -0.002,-0.004 -0.004,-0.008 -0.544,-0.54398 -1.29497,-0.88086 -2.125,-0.88086 z"
       transform="matrix(0.26458333,0,0,0.26458333,0,161.53332)"
       id="rect1513-7"
       inkscape:connector-curvature="0" />
  </g>
  <g
     style="display:inline"
     transform="translate(0,-161.53332)"
     id="g2430"
     inkscape:groupmode="layer"
     inkscape:label="Livello 1 copia" />
  <g
     inkscape:groupmode="layer"
     id="layer3"
     inkscape:label="Livello 2"
     style="display:inline">
    <path
       style="fill:#ffffff;stroke-width:0.19883528"
       sodipodi:nodetypes="cccccccsccccccscccscccccccccccsscccccccssscssccsccsscssscssccscccscscccccccccccccccccccccccccscccccscccccccssscccscccccsccccccssscccscccsssscccccssccccccccccccccccccccccsccccccccccccccccccsccssccccccsssscccscccsccsccccccccsscsssssssssssssssssssssscssssssccscssccsccccccssccccccccccccccccccccccccccccccccccccccccccccccccccccccccccccsscsccccsccccccccccccccsssccssssss"
       d="m 109.04487,89.503639 v 0 0 c -1.46462,0 -2.69562,1.004512 -3.04955,2.359774 H 92.000308 l -7.214346,-7.202808 -5.11126,-5.111855 c -0.149126,-0.149128 -0.35154,-0.233033 -0.562305,-0.233033 H 66.423656 c 0,0 -0.0049,-3.811964 -0.0049,-5.749919 h 14.175366 l 9.35341,9.35301 c 0.01789,0.02247 0.0338,0.04592 0.05448,0.06681 l 3.014346,3.003211 c 0.149121,0.148527 0.350945,0.231839 0.561313,0.231839 h 2.170087 c 0.353928,1.354668 1.585311,2.358782 3.049736,2.358782 v 0 h 1.96e-4 c 0.0015,0 0.003,-1.96e-4 0.0045,-1.96e-4 0.105781,-1.95e-4 0.210766,-0.0053 0.314556,-0.01593 0.01706,-0.0015 0.03359,-0.0053 0.05073,-0.0076 0.08888,-0.01037 0.177362,-0.02269 0.264446,-0.04036 0.003,-5.93e-4 0.0053,-0.0015 0.0081,-0.0023 0.596108,-0.12248 1.144498,-0.41477 1.585318,-0.853798 0.4436,-0.442215 0.73848,-0.993781 0.86115,-1.594661 4e-4,-0.0015 7.5e-4,-0.003 0.002,-0.0053 0.0153,-0.07595 0.0255,-0.153299 0.0352,-0.230652 0.004,-0.02901 0.01,-0.05726 0.0127,-0.08669 0.004,-0.04592 0.004,-0.09305 0.008,-0.139381 0.003,-0.05922 0.009,-0.117911 0.009,-0.177956 0,-1.739806 -1.4149,-3.15512 -3.154323,-3.15512 h -1.95e-4 v 0 c -1.46462,0 -2.696011,1.00452 -3.049939,2.359781 h -1.841409 l -2.222982,-2.214831 4.428464,-4.42846 h 5.557844 c 0.35412,1.361822 1.59048,2.371512 3.06147,2.371512 1.73961,0 3.15472,-1.42068 3.15472,-3.166851 0,-1.739016 -1.41511,-3.153924 -3.15472,-3.153924 -1.47,0 -2.70535,1.004113 -3.06088,2.358586 h -5.888104 c -0.210969,0 -0.413184,0.08391 -0.562312,0.233033 l -4.657079,4.656699 -9.076831,-9.077425 C 81.33696,72.05859 81.134545,71.974685 80.92378,71.974685 H 66.418745 v -4.808037 c 0,0 17.940048,-3.7e-5 18.321479,0 l 2.247039,1.96e-4 c 0.299752,3e-5 17.995787,0 17.995787,0 0.35532,1.355261 1.59088,2.359781 3.06107,2.359781 1.73941,0 3.15452,-1.415307 3.15452,-3.15512 0,-1.746366 -1.41511,-3.167046 -3.15452,-3.167046 -1.47099,0 -2.70754,1.009885 -3.06166,2.371707 H 87.15767 84.907849 c 0.068,-7.51e-4 -18.489098,0 -18.489098,0 v -4.640819 h 14.505035 c 0.210964,0 0.41318,-0.08371 0.562306,-0.232831 l 9.077229,-9.077202 4.656924,4.657121 c 0.149128,0.149126 0.351538,0.232836 0.562305,0.232836 h 5.8881 c 0.35533,1.354468 1.59089,2.358386 3.06088,2.358386 1.73961,0 3.15472,-1.414713 3.15472,-3.153728 v 0 0 c 0,-0.0018 -2e-4,-0.0036 -2e-4,-0.0053 -2e-4,-0.105184 -0.005,-0.209572 -0.0159,-0.312967 -0.003,-0.02804 -0.009,-0.05488 -0.0123,-0.08272 -0.01,-0.07675 -0.0198,-0.153501 -0.0352,-0.229058 -0.005,-0.02585 -0.0132,-0.0505 -0.0191,-0.07615 -0.0175,-0.07615 -0.0354,-0.152108 -0.0582,-0.226473 -0.007,-0.02167 -0.0157,-0.04215 -0.0229,-0.06363 -0.0255,-0.07615 -0.0517,-0.152108 -0.0829,-0.226075 -0.01,-0.02267 -0.0213,-0.04414 -0.0316,-0.06661 -0.0314,-0.07019 -0.0634,-0.140378 -0.10021,-0.207982 -0.0193,-0.03559 -0.0418,-0.06879 -0.0622,-0.103593 -0.0306,-0.0519 -0.0603,-0.104587 -0.094,-0.154893 -0.0529,-0.07854 -0.10955,-0.1537 -0.16901,-0.22707 -0.004,-0.0047 -0.008,-0.01014 -0.0114,-0.01491 -0.13262,-0.161852 -0.28115,-0.310581 -0.4432,-0.443204 l -0.005,-0.003 c -0.0765,-0.06244 -0.15569,-0.121687 -0.2378,-0.176963 -0.0469,-0.03162 -0.0962,-0.05905 -0.14476,-0.08789 -0.0382,-0.02287 -0.075,-0.04732 -0.11413,-0.0686 -0.0634,-0.0344 -0.12924,-0.06422 -0.19486,-0.09425 -0.0271,-0.01232 -0.0527,-0.02625 -0.0797,-0.03778 -0.0688,-0.02903 -0.13919,-0.05309 -0.20977,-0.07695 -0.0272,-0.0091 -0.0533,-0.02048 -0.0803,-0.02883 -0.0676,-0.02088 -0.13681,-0.03679 -0.2058,-0.05309 -0.0324,-0.0078 -0.064,-0.0175 -0.0968,-0.02426 -0.0638,-0.01293 -0.12884,-0.02068 -0.19386,-0.02962 -0.0394,-0.0053 -0.0784,-0.01352 -0.11831,-0.0175 -0.0684,-0.0068 -0.13759,-0.0082 -0.20699,-0.01054 -0.0366,-0.0012 -0.0724,-0.0056 -0.10936,-0.0056 -1.47018,0 -2.70575,1.004715 -3.06106,2.360175 H 96.110983 L 91.6869,50.500511 93.906297,48.280912 h 1.839823 c 0.352741,1.361823 1.584921,2.371509 3.050533,2.371509 v 0 h 2.03e-4 c 1.739404,0 3.154324,-1.420678 3.154324,-3.16685 0,-1.739808 -1.41492,-3.155317 -3.154324,-3.155317 h -2.03e-4 v 0 c -1.46462,0 -2.696004,1.004516 -3.049932,2.359976 h -2.169575 c -0.211165,0 -0.41338,0.08371 -0.562508,0.233035 L 80.593719,59.345098 H 66.418353 v -3.029856 -2.708136 h 12.693645 c 0.210965,0 0.413181,-0.08371 0.562307,-0.233036 l 5.110862,-5.111459 7.214743,-7.203603 h 13.99502 c 0.35392,1.355261 1.58492,2.359975 3.04933,2.359975 v 0 h 2.1e-4 c 1.7394,0 3.15432,-1.415508 3.15432,-3.155317 0,-1.745575 -1.41492,-3.165657 -3.15432,-3.165657 h -2.1e-4 v 0 c -1.46541,0 -2.697,1.009288 -3.04993,2.370316 H 91.670834 c -0.210765,0 -0.412782,0.08351 -0.561909,0.232438 l -6.871151,6.860415 c -0.917824,-0.995171 -2.838772,-3.122112 -4.293451,-4.739439 0.269025,-0.466865 0.415566,-1.000141 0.415566,-1.558272 0,-1.745575 -1.414912,-3.165656 -3.154323,-3.165656 -1.746171,0 -3.16685,1.420081 -3.16685,3.165656 0,1.739809 1.420679,3.155318 3.16685,3.155318 0.588552,0 1.145888,-0.161653 1.626672,-0.454936 1.621501,1.804033 3.373439,3.744069 4.280923,4.721344 l -4.330632,4.331031 H 66.418353 c 0.09027,-11.11436 0,-11.749172 0,-22.825099 0,-0.439227 -0.356114,-0.795341 -0.795341,-0.795341 -0.439227,0 -0.795341,0.356114 -0.795341,0.795341 v 1.675982 l -4.522708,-0.180343 c -0.393296,-0.01671 -0.739667,0.258884 -0.813236,0.646016 l -1.870046,9.823259 c -1.572986,0.21514 -3.172616,0.577816 -4.769661,1.081267 L 46.93667,34.192827 C 46.703634,33.875883 46.273952,33.776664 45.925791,33.959991 L 41.123322,36.485 c -0.348558,0.183127 -0.51041,0.593921 -0.380969,0.965544 l 3.289134,9.4407 c -1.291634,1.001733 -2.493594,2.116801 -3.583807,3.32552 l -9.155769,-4.019455 c -0.360488,-0.158273 -0.782417,-0.02903 -0.992189,0.303821 l -2.895439,4.58713 c -0.210169,0.333049 -0.144951,0.76989 0.153501,1.026984 l 7.568864,6.521599 c -0.613606,1.503992 -1.098167,3.074792 -1.445134,4.683565 l -9.933812,1.093002 c -0.352734,0.03878 -0.630506,0.304412 -0.694532,0.642032 -0.0024,0.0121 -0.0018,0.02502 -0.0036,0.03735 -0.0052,0.0366 -0.01034,0.0732 -0.01034,0.111155 v 0 5.421443 c 0,0.405226 0.304814,0.74583 0.707654,0.790567 l 9.934408,1.103538 c 0.346769,1.609375 0.831331,3.18037 1.445135,4.68476 l -7.568268,6.510064 c -0.186706,0.160657 -0.282346,0.391706 -0.27658,0.623748 0.0024,0.09286 0.02088,0.185907 0.05647,0.274389 0.0177,0.04456 0.03977,0.08769 0.06601,0.129244 l 2.895241,4.587132 c 0.209771,0.33245 0.630905,0.461896 0.991592,0.304021 l 9.156564,-4.008723 c 1.090612,1.208921 2.29277,2.324385 3.584404,3.326117 l -3.289531,9.452433 c -0.129441,0.372219 0.03321,0.783209 0.38236,0.965945 l 4.802469,2.513475 c 0.348359,0.18253 0.777049,0.0831 1.009686,-0.23344 l 5.913759,-8.042091 c 1.560062,0.497886 3.16009,0.85957 4.771451,1.07928 l 1.870046,9.810541 c 0.07178,0.37639 0.400852,0.64641 0.780826,0.64641 0.01054,0 0.02108,-2e-4 0.03162,-6e-4 l 4.523503,-0.171 v 1.53263 c 0,0.43923 0.356114,0.79534 0.795341,0.79534 0.439227,0 0.795341,-0.35611 0.795341,-0.79534 -0.117188,-4.73578 -1.99e-4,-6.658399 -1.99e-4,-6.658399 V 80.906364 h 12.364175 l 4.3193,4.319898 c -0.938702,0.970514 -2.73836,2.884901 -4.39605,4.656323 -0.454537,-0.245757 -0.967334,-0.378976 -1.500013,-0.378976 -1.746172,0 -3.16685,1.415306 -3.16685,3.155119 0,1.739009 1.420678,3.153925 3.16685,3.153925 1.739411,0 3.154323,-1.414916 3.154323,-3.153925 0,-0.60705 -0.17418,-1.184865 -0.494106,-1.687914 1.485499,-1.586506 3.434482,-3.65877 4.359862,-4.621333 l 6.88328,6.872349 c 0.149126,0.148722 0.351342,0.232432 0.561909,0.232432 H 105.9955 c 0.35393,1.354668 1.58472,2.358586 3.04913,2.358586 v 0 h 2.1e-4 c 1.7394,0 3.15432,-1.414908 3.15432,-3.153925 1.9e-4,-1.740008 -1.41492,-3.155314 -3.15432,-3.155314 z m -8.68354,-4.078116 c 0,0.0505 -0.002,0.100416 -0.008,0.149925 -2e-4,0.0023 -2e-4,0.0045 -4e-4,0.006 -0.002,0.01946 -0.006,0.03855 -0.009,0.05786 -0.005,0.03359 -0.009,0.06764 -0.0153,0.100409 0,6.01e-4 -3.9e-4,0.0015 -3.9e-4,0.0023 -0.13501,0.652982 -0.678431,1.157624 -1.350298,1.235562 -0.0077,7.52e-4 -0.0151,0.003 -0.02285,0.0038 -0.0505,0.0053 -0.102001,0.0075 -0.153705,0.0077 -0.0015,0 -0.003,2.03e-4 -0.0045,2.03e-4 -0.862545,0 -1.564435,-0.701295 -1.564435,-1.563443 0,-0.862748 0.70189,-1.564435 1.564435,-1.564435 0.861749,-2.03e-4 1.563243,0.701491 1.563243,1.564435 z m 4.3702,-9.797411 c 0.86254,0 1.56404,0.701295 1.56404,1.563247 0,0.869106 -0.7015,1.576166 -1.56404,1.576166 -0.86911,0 -1.57617,-0.70706 -1.57617,-1.576166 0,-0.861952 0.70706,-1.563247 1.57617,-1.563247 z m 3.31239,-10.832547 c 0.86235,0 1.56384,0.707059 1.56384,1.576368 0,0.862749 -0.70149,1.564435 -1.56384,1.564435 -0.8691,0 -1.57616,-0.701686 -1.57616,-1.564435 0,-0.869309 0.70706,-1.576368 1.57616,-1.576368 z m -3.31199,-10.640271 c 0.86214,0 1.56364,0.701889 1.56364,1.564635 0,0.861752 -0.7015,1.562848 -1.56404,1.562848 -0.86911,0 -1.57617,-0.701096 -1.57617,-1.562848 0,-0.862746 0.70726,-1.564635 1.57657,-1.564635 z m -4.3706,-6.669731 c 0,0.869109 -0.701293,1.576168 -1.563448,1.576168 -0.862545,0 -1.564434,-0.707059 -1.564434,-1.576168 0,-0.862746 0.701889,-1.564635 1.564434,-1.564635 0.861952,0 1.563448,0.701889 1.563448,1.564635 z m 10.24717,-7.221698 c 0,0.862746 -0.70149,1.564436 -1.56363,1.564635 -0.86235,0 -1.56385,-0.701889 -1.56385,-1.564635 0,-0.868513 0.7015,-1.574975 1.56385,-1.574975 0.86195,0 1.56363,0.706462 1.56363,1.574975 z m -34.978505,0 c 0,-0.868513 0.707058,-1.574975 1.576167,-1.574975 0.862151,0 1.563641,0.706462 1.563641,1.574975 0,0.402244 -0.148729,0.777247 -0.432069,1.069734 -0.294674,0.318932 -0.696719,0.494702 -1.131572,0.494702 -0.869307,1.99e-4 -1.576167,-0.70169 -1.576167,-1.564436 z M 49.187684,73.088992 c -0.754978,-1.564443 -1.178298,-3.317971 -1.178298,-5.168127 0,-6.578466 5.35205,-11.930519 11.930317,-11.930519 1.697059,0 3.341427,0.349949 4.888366,1.038911 v 21.767494 c -1.529441,0.697914 -3.170628,1.055419 -4.888565,1.055419 -4.728105,0 -8.82272,-2.764999 -10.75182,-6.763178 z m 9.888676,20.730959 c -0.06522,-0.341799 -0.344979,-0.601473 -0.690555,-0.641243 -1.886947,-0.21653 -3.762958,-0.640844 -5.576336,-1.261014 -0.04196,-0.01428 -0.08431,-0.02487 -0.127055,-0.03179 -0.0078,-0.0015 -0.01551,-0.0015 -0.02327,-0.0023 -0.035,-0.0045 -0.06999,-0.0086 -0.104786,-0.0086 -5.97e-4,0 -0.0014,-1.95e-4 -0.002,-1.95e-4 -0.0022,0 -0.0044,7.52e-4 -0.0065,7.52e-4 -0.05309,3.98e-4 -0.105382,0.0075 -0.156881,0.01826 -0.01232,0.003 -0.02445,0.0053 -0.03679,0.0086 -0.05348,0.0139 -0.105781,0.03164 -0.155291,0.05629 l -0.003,0.0015 c -0.04792,0.02427 -0.09246,0.05471 -0.135009,0.08848 -0.01074,0.0086 -0.02107,0.01729 -0.03141,0.02623 -0.04196,0.0372 -0.08192,0.07734 -0.115921,0.123675 l -5.851359,7.957134 -3.589574,-1.878591 3.25394,-9.350033 c 0.11433,-0.328279 0.002,-0.692743 -0.277177,-0.899925 -1.534412,-1.138731 -2.942563,-2.445475 -4.185085,-3.884056 -0.142565,-0.16503 -0.341996,-0.260073 -0.549382,-0.273795 -0.124272,-0.0083 -0.251725,0.01255 -0.371424,0.065 l -9.061322,3.966961 -2.164124,-3.428712 7.486945,-6.440272 c 0.09902,-0.08511 0.172986,-0.190686 0.219514,-0.30641 0.03082,-0.07695 0.04971,-0.15847 0.05548,-0.241383 0.0086,-0.124276 -0.01173,-0.251724 -0.06363,-0.371423 -0.564888,-1.303912 -1.025789,-2.66514 -1.375738,-4.062952 -0.116717,-0.466067 -0.220906,-0.935915 -0.312769,-1.408949 -0.06621,-0.341799 -0.347166,-0.600677 -0.692941,-0.639056 l -9.801981,-1.088823 v -3.996984 l 9.801188,-1.078483 c 0.346172,-0.03818 0.627325,-0.297062 0.693736,-0.639056 0.04593,-0.236415 0.09504,-0.472237 0.147138,-0.707059 0.365062,-1.643576 0.882431,-3.243001 1.54157,-4.764097 0.138389,-0.319329 0.05309,-0.691548 -0.210765,-0.918818 l -7.48774,-6.451805 2.163924,-3.428517 9.060925,3.978098 c 0.319728,0.140378 0.693537,0.05567 0.921601,-0.208379 1.242324,-1.438574 2.650475,-2.745319 4.185086,-3.884248 0.244368,-0.181338 0.360886,-0.48317 0.309587,-0.775855 -0.0074,-0.04175 -0.0181,-0.08331 -0.03241,-0.124471 l -3.254139,-9.339891 3.590568,-1.88794 5.85053,7.956195 c 0.07675,0.104587 0.17577,0.185911 0.286521,0.240988 0.184718,0.09186 0.40284,0.110752 0.607442,0.04175 1.872631,-0.628916 3.750034,-1.053628 5.579915,-1.262207 0.345973,-0.03937 0.626132,-0.299246 0.69135,-0.641442 l 1.849966,-9.718074 3.901546,0.157279 V 55.30595 c -0.20997,-0.08093 -0.421729,-0.155688 -0.634483,-0.225877 -0.05269,-0.0173 -0.105979,-0.03221 -0.158869,-0.04911 -0.16225,-0.0513 -0.324898,-0.100809 -0.488539,-0.145746 -0.07238,-0.01988 -0.145149,-0.03758 -0.217923,-0.05627 -0.145945,-0.03758 -0.292288,-0.07357 -0.439426,-0.106177 -0.07894,-0.01749 -0.158273,-0.0338 -0.237608,-0.04991 -0.143759,-0.02903 -0.287715,-0.05587 -0.432467,-0.08033 -0.07973,-0.01352 -0.159665,-0.02684 -0.239995,-0.03877 -0.148927,-0.02247 -0.298252,-0.04156 -0.448174,-0.05905 -0.07516,-0.0087 -0.150121,-0.01849 -0.225479,-0.02585 -0.167022,-0.0165 -0.334839,-0.02903 -0.502855,-0.03937 -0.05806,-0.0038 -0.115921,-0.0089 -0.173981,-0.01193 -0.228661,-0.01133 -0.458116,-0.01829 -0.688766,-0.01829 -7.455527,0 -13.520998,6.065471 -13.520998,13.521197 0,2.097319 0.479789,4.084474 1.335576,5.857692 2.186393,4.531258 6.826811,7.665095 12.185622,7.665095 0.196648,0 0.392302,-0.0053 0.587359,-0.01353 0.02863,-0.0015 0.05707,-0.0023 0.0857,-0.0038 0.193268,-0.0093 0.385542,-0.02209 0.576821,-0.03953 0.0161,-0.0015 0.03201,-0.0038 0.04812,-0.0045 0.185513,-0.01728 0.369834,-0.03855 0.553558,-0.06365 0.01749,-0.0023 0.035,-0.0045 0.05249,-0.0068 0.18949,-0.0266 0.377589,-0.05749 0.564891,-0.09206 0.02645,-0.0045 0.05269,-0.0099 0.07894,-0.01488 0.377787,-0.07199 0.751398,-0.160461 1.120238,-0.264845 0.02625,-0.0075 0.05269,-0.01473 0.07874,-0.02247 0.182929,-0.05306 0.364864,-0.109562 0.545605,-0.170404 0.01293,-0.0045 0.02605,-0.0093 0.03897,-0.01375 0.173981,-0.05944 0.346967,-0.122683 0.518563,-0.189492 0.01253,-0.0053 0.02545,-0.0092 0.03818,-0.0139 v 15.691084 3.107001 4.051272 l -3.901745,0.14753 z m 18.129604,0.402047 c -0.869109,0 -1.576168,-0.701296 -1.576168,-1.56324 0,-0.862748 0.707059,-1.564442 1.576168,-1.564442 0.407214,0 0.774861,0.143763 1.061184,0.41338 0.324101,0.307801 0.502456,0.716603 0.502456,1.151062 1.99e-4,0.861944 -0.701491,1.56324 -1.56364,1.56324 z m 30.274856,-1.56324 c 0,-0.862748 0.70149,-1.564442 1.56384,-1.564442 0.86216,0 1.56365,0.701694 1.56365,1.564442 0,0.861944 -0.70149,1.56324 -1.56365,1.56324 -0.87686,0 -1.56384,-0.686581 -1.56384,-1.56324 z"
       id="path2"
       inkscape:connector-curvature="0" />
  </g>
</svg>
